# This file uses centimeters as units for non-parametric coordinates.

mtllib 1.mtl
g default
v -5.659859 -5.028239 5.028239
v 5.659859 -5.028239 5.028239
v -5.659859 5.028239 5.028239
v 5.659859 5.028239 5.028239
v -5.659859 5.028239 -5.028239
v 5.659859 5.028239 -5.028239
v -5.659859 -5.028239 -5.028239
v 5.659859 -5.028239 -5.028239
v 1.886619 7.900984 5.028239
v 1.886619 7.900984 -5.028239
v 1.886619 -5.028239 -5.028239
v 1.886619 -5.028239 5.028239
v -1.886620 7.900984 5.028239
v -1.886620 7.900984 -5.028239
v -1.886620 -5.028239 -5.028239
v -1.886620 -5.028239 5.028239
v 5.659859 2.990129 5.028239
v 1.886619 2.990151 5.028239
v -1.886620 2.990151 5.028239
v -5.659859 2.990129 5.028239
v -5.659859 2.990129 -5.028239
v -1.886620 2.990151 -5.028239
v 1.886619 2.990151 -5.028239
v 5.659859 2.990129 -5.028239
v -1.886620 -3.901158 5.028239
v -5.659859 -3.901161 5.028239
v -5.659859 -3.901161 -5.028239
v -1.886620 -3.901158 -5.028239
v 1.886619 -3.901158 -5.028239
v 5.659859 -3.901161 -5.028239
v 5.659859 -3.901161 5.028239
v 1.886619 -3.901158 5.028239
v -4.443023 2.990136 5.028239
v -4.443023 -3.901160 5.028239
v -4.443023 -5.028239 5.028239
v -4.443023 -5.028239 -5.028239
v -4.443023 -3.901160 -5.028239
v -4.443023 2.990136 -5.028239
v -4.443023 5.954673 -5.028239
v -4.443023 5.954673 5.028239
v 1.886619 1.448777 5.028239
v -1.886620 1.448777 5.028239
v -4.443023 1.448765 5.028239
v -5.659859 1.448759 5.028239
v -5.659859 1.448759 -5.028239
v -4.443023 1.448765 -5.028239
v -1.886620 1.448778 -5.028239
v 1.886619 1.448778 -5.028239
v 5.659859 1.448759 -5.028239
v 5.659859 1.448759 5.028239
v 3.684195 2.990141 5.028239
v 3.684195 1.448769 5.028239
v 3.684195 -3.901160 5.028239
v 3.684195 -5.028239 5.028239
v 3.684195 -5.028239 -5.028239
v 3.684195 -3.901160 -5.028239
v 3.684195 1.448769 -5.028239
v 3.684195 2.990141 -5.028239
v 3.684195 6.532405 -5.028239
v 3.684195 6.532405 5.028239
vt 0.375000 0.000000
vt 0.625000 0.000000
vt 0.375000 0.250000
vt 0.625000 0.250000
vt 0.375000 0.500000
vt 0.625000 0.500000
vt 0.375000 0.750000
vt 0.625000 0.750000
vt 0.375000 1.000000
vt 0.625000 1.000000
vt 0.875000 0.000000
vt 0.875000 0.250000
vt 0.125000 0.000000
vt 0.125000 0.250000
vt 0.541667 0.250000
vt 0.541667 0.500000
vt 0.541667 0.750000
vt 0.541667 0.000000
vt 0.541667 1.000000
vt 0.458333 0.250000
vt 0.458333 0.500000
vt 0.458333 0.750000
vt 0.458333 0.000000
vt 0.458333 1.000000
vt 0.625000 0.196747
vt 0.541667 0.196747
vt 0.458333 0.196747
vt 0.375000 0.196747
vt 0.125000 0.196747
vt 0.375000 0.553253
vt 0.458333 0.553253
vt 0.541667 0.553253
vt 0.625000 0.553253
vt 0.875000 0.196747
vt 0.458333 0.027655
vt 0.375000 0.027655
vt 0.125000 0.027655
vt 0.375000 0.722345
vt 0.458333 0.722345
vt 0.541667 0.722345
vt 0.625000 0.722345
vt 0.875000 0.027655
vt 0.625000 0.027655
vt 0.541667 0.027655
vt 0.401874 0.196747
vt 0.401874 0.027655
vt 0.401874 0.000000
vt 0.401874 1.000000
vt 0.401874 0.750000
vt 0.401874 0.722345
vt 0.401874 0.553253
vt 0.401874 0.500000
vt 0.401874 0.250000
vt 0.541667 0.158926
vt 0.458333 0.158926
vt 0.401874 0.158926
vt 0.375000 0.158926
vt 0.125000 0.158926
vt 0.375000 0.591074
vt 0.401874 0.591074
vt 0.458333 0.591074
vt 0.541667 0.591074
vt 0.625000 0.591074
vt 0.875000 0.158926
vt 0.625000 0.158926
vt 0.581367 0.196747
vt 0.581367 0.158926
vt 0.581367 0.027655
vt 0.581367 0.000000
vt 0.581367 1.000000
vt 0.581367 0.750000
vt 0.581367 0.722345
vt 0.581367 0.591074
vt 0.581367 0.553253
vt 0.581367 0.500000
vt 0.581367 0.250000
vn 0.000000 0.000000 1.000000
vn 0.000000 0.000000 1.000000
vn 0.000000 0.000000 1.000000
vn 0.000000 0.000000 1.000000
vn -0.605762 0.795646 0.000000
vn -0.293910 0.955833 0.000000
vn -0.293910 0.955833 0.000000
vn -0.605762 0.795646 0.000000
vn 0.000000 0.000000 -1.000000
vn 0.000000 0.000000 -1.000000
vn -0.000000 0.000000 -1.000000
vn -0.000000 0.000000 -1.000000
vn 0.000000 -1.000000 0.000000
vn 0.000000 -1.000000 0.000000
vn 0.000000 -1.000000 0.000000
vn 0.000000 -1.000000 0.000000
vn 1.000000 0.000000 0.000000
vn 1.000000 0.000000 0.000000
vn 1.000000 0.000000 0.000000
vn 1.000000 0.000000 0.000000
vn -1.000000 0.000000 0.000000
vn -1.000000 0.000000 0.000000
vn -1.000000 0.000000 0.000000
vn -1.000000 0.000000 0.000000
vn 0.605762 0.795646 0.000000
vn 0.605763 0.795646 0.000000
vn 0.605763 0.795646 0.000000
vn 0.605762 0.795646 0.000000
vn 0.000000 0.000000 -1.000000
vn 0.000000 0.000000 -1.000000
vn 0.000000 0.000000 -1.000000
vn 0.000000 0.000000 -1.000000
vn 0.000000 -1.000000 0.000000
vn 0.000000 -1.000000 0.000000
vn 0.000000 -1.000000 0.000000
vn 0.000000 -1.000000 0.000000
vn 0.000000 0.000000 1.000000
vn 0.000000 0.000000 1.000000
vn -0.000000 0.000000 1.000000
vn -0.000000 0.000000 1.000000
vn 0.238575 0.971124 0.000000
vn 0.238575 0.971124 0.000000
vn 0.000000 0.000000 -1.000000
vn 0.000000 0.000000 -1.000000
vn 0.000000 -1.000000 0.000000
vn 0.000000 -1.000000 0.000000
vn 0.000000 0.000000 1.000000
vn 0.000000 0.000000 1.000000
vn 0.000000 0.000000 1.000000
vn 0.000000 0.000000 1.000000
vn 0.000000 0.000000 1.000000
vn 0.000000 0.000000 1.000000
vn 0.000000 0.000000 1.000000
vn 0.000000 0.000000 1.000000
vn 0.000000 0.000000 1.000000
vn 0.000000 0.000000 1.000000
vn 0.000000 0.000000 1.000000
vn 0.000000 0.000000 1.000000
vn -1.000000 0.000000 0.000000
vn -1.000000 0.000000 0.000000
vn -1.000000 0.000000 0.000000
vn -1.000000 0.000000 0.000000
vn 0.000000 0.000000 -1.000000
vn 0.000000 0.000000 -1.000000
vn 0.000000 0.000000 -1.000000
vn 0.000000 0.000000 -1.000000
vn 0.000000 0.000000 -1.000000
vn 0.000000 0.000000 -1.000000
vn 0.000000 0.000000 -1.000000
vn 0.000000 0.000000 -1.000000
vn 0.000000 0.000000 -1.000000
vn 0.000000 0.000000 -1.000000
vn 1.000000 0.000000 0.000000
vn 1.000000 0.000000 0.000000
vn 1.000000 0.000000 0.000000
vn 1.000000 0.000000 0.000000
vn 0.000000 0.000000 1.000000
vn 0.000000 0.000000 1.000000
vn -1.000000 0.000000 0.000000
vn -1.000000 0.000000 0.000000
vn -0.000000 0.000000 -1.000000
vn -0.000000 0.000000 -1.000000
vn 0.000000 0.000000 -1.000000
vn 0.000000 0.000000 -1.000000
vn 0.000000 0.000000 -1.000000
vn 1.000000 0.000000 0.000000
vn 1.000000 0.000000 0.000000
vn -0.000000 0.000000 1.000000
vn 0.000000 0.000000 1.000000
vn 0.000000 0.000000 1.000000
vn 0.000000 0.000000 1.000000
vn 0.000000 0.000000 1.000000
vn 0.000000 0.000000 1.000000
vn 0.000000 -1.000000 0.000000
vn 0.000000 -1.000000 0.000000
vn 0.000000 0.000000 -1.000000
vn -0.000000 0.000000 -1.000000
vn -0.000000 0.000000 -1.000000
vn 0.000000 0.000000 -1.000000
vn 0.000000 0.000000 -1.000000
vn -0.605762 0.795646 0.000000
vn -0.605762 0.795646 0.000000
vn 0.000000 0.000000 1.000000
vn 0.000000 0.000000 1.000000
s 1
g pCube1
usemtl lambert6SG
f 35/47/1 16/23/2 25/35/3 34/46/4
s 2
usemtl lambert5SG
f 40/53/5 13/20/6 14/21/7 39/52/8
s 3
usemtl initialShadingGroup
f 15/22/9 36/49/10 37/50/11 28/39/12
s 4
f 36/49/13 15/22/14 16/24/15 35/48/16
s 5
usemtl lambert4SG
f 2/2/17 8/11/18 30/42/19 31/43/20
s 6
f 7/13/21 1/1/22 26/36/23 27/37/24
s 2
usemtl lambert5SG
f 60/76/25 4/4/26 6/6/27 59/75/28
s 3
usemtl initialShadingGroup
f 8/8/29 55/71/30 56/72/31 30/41/32
s 4
f 54/70/33 55/71/34 8/8/35 2/10/36
s 1
usemtl lambert6SG
f 54/69/37 2/2/38 31/43/39 53/68/40
s 2
usemtl lambert5SG
f 13/20/6 9/15/41 10/16/42 14/21/7
s 3
usemtl lambert4SG
f 11/17/43 15/22/9 28/39/12 29/40/44
s 4
f 16/24/15 15/22/14 11/17/45 12/19/46
s 1
usemtl lambert6SG
f 16/23/2 12/18/47 32/44/48 25/35/3
f 60/76/49 51/66/50 17/25/51 4/4/52
f 13/20/53 19/27/54 18/26/55 9/15/56
f 40/53/57 33/45/58 19/27/54 13/20/53
s 6
usemtl lambert4SG
f 21/29/59 20/28/60 3/3/61 5/14/62
s 3
usemtl initialShadingGroup
f 39/52/63 14/21/64 22/31/65 38/51/66
f 23/32/67 22/31/65 14/21/64 10/16/68
f 24/33/69 58/74/70 59/75/71 6/6/72
s 5
usemtl lambert4SG
f 17/25/73 24/34/74 6/12/75 4/4/76
s 1
usemtl blinn1SG
f 34/46/4 25/35/3 42/55/77 43/56/78
s 6
usemtl lambert4SG
f 27/37/24 26/36/23 44/57/79 45/58/80
s 3
usemtl initialShadingGroup
f 28/39/12 37/50/11 46/60/81 47/61/82
f 29/40/44 28/39/12 47/61/82 48/62/83
f 30/41/32 56/72/31 57/73/84 49/63/85
s 5
usemtl lambert4SG
f 31/43/20 30/42/19 49/64/86 50/65/87
s 1
usemtl lambert6SG
f 53/68/40 31/43/39 50/65/88 52/67/89
f 25/35/3 32/44/48 41/54/90 42/55/77
f 26/36/91 34/46/4 43/56/78 44/57/92
f 1/1/93 35/47/1 34/46/4 26/36/91
s 4
usemtl initialShadingGroup
f 7/7/94 36/49/13 35/48/16 1/9/95
s 3
f 37/50/11 36/49/10 7/7/96 27/38/97
f 46/60/81 37/50/11 27/38/97 45/59/98
f 5/5/99 39/52/63 38/51/66 21/30/100
s 2
usemtl lambert5SG
f 3/3/101 40/53/5 39/52/8 5/5/102
s 1
usemtl lambert6SG
f 20/28/103 33/45/58 40/53/57 3/3/104
f 42/55/77 41/54/90 18/26/55 19/27/54
f 43/56/78 42/55/77 19/27/54 33/45/58
f 44/57/92 43/56/78 33/45/58 20/28/103
s 6
usemtl lambert4SG
f 45/58/80 44/57/79 20/28/60 21/29/59
s 3
usemtl initialShadingGroup
f 38/51/66 46/60/81 45/59/98 21/30/100
f 47/61/82 46/60/81 38/51/66 22/31/65
f 48/62/83 47/61/82 22/31/65 23/32/67
f 49/63/85 57/73/84 58/74/70 24/33/69
s 5
usemtl lambert4SG
f 50/65/87 49/64/86 24/34/74 17/25/73
s 1
usemtl lambert6SG
f 52/67/89 50/65/88 17/25/51 51/66/50
usemtl lambert2SG
f 41/54/90 52/67/89 51/66/50 18/26/55
usemtl lambert6SG
f 32/44/48 53/68/40 52/67/89 41/54/90
f 12/18/47 54/69/37 53/68/40 32/44/48
s 4
usemtl initialShadingGroup
f 12/19/46 11/17/45 55/71/34 54/70/33
s 3
f 56/72/31 55/71/30 11/17/43 29/40/44
f 57/73/84 56/72/31 29/40/44 48/62/83
f 58/74/70 57/73/84 48/62/83 23/32/67
f 59/75/71 58/74/70 23/32/67 10/16/68
s 2
usemtl lambert5SG
f 9/15/41 60/76/25 59/75/28 10/16/42
s 1
usemtl lambert6SG
f 9/15/56 18/26/55 51/66/50 60/76/49
