# This file uses centimeters as units for non-parametric coordinates.

mtllib 11.mtl
g default
v 5.068914 -6.429653 6.099765
v 4.974646 -6.429653 -6.176887
v 5.068914 6.429653 6.099765
v 4.974646 6.429653 -6.176887
v -4.974646 6.429653 6.176887
v -5.068914 6.429653 -6.099765
v -4.974646 -6.429653 6.176887
v -5.068914 -6.429653 -6.099765
v -0.120958 10.046207 -6.137758
v -0.026689 10.046207 6.138892
v -0.026689 -6.429653 6.138892
v -0.120958 -6.429653 -6.137758
v 1.677938 -6.429653 -6.151572
v -0.120958 0.673350 -6.137758
v -1.809117 -6.429653 -6.124796
v 1.774345 -6.429653 6.125063
v 1.695173 -0.578553 -6.151704
v 1.629468 0.600844 -6.151199
v 1.388553 0.634108 -6.149350
v 0.884808 0.662695 -6.145481
v 0.271558 0.673350 -6.140773
v -1.042552 0.661396 -6.130682
v -1.524391 0.636447 -6.126982
v -1.765316 0.601883 -6.125133
v -1.787211 -0.578553 -6.124964
v 3.206674 -6.429653 -6.163310
v 2.241955 8.369153 -6.155902
v 4.974646 0.893214 -6.176887
v 5.025201 0.893214 0.406887
v 5.068914 0.893214 6.099765
v -0.026689 2.952699 6.138892
v -4.974646 0.893214 6.176887
v -5.068914 0.893214 -6.099765
v 5.033445 0.893214 1.480422
v 5.025201 4.323630 0.406887
v 5.002977 0.893214 -2.487405
v 5.033444 2.584463 1.480417
v 5.033286 3.141130 1.459780
v 5.031060 3.793907 1.169916
v 5.026638 4.266460 0.593994
v 5.021195 4.483037 -0.114823
v 5.015374 4.483037 -0.872870
v 5.009969 4.266460 -1.576764
v 5.005585 3.798832 -2.147763
v 5.003392 3.154002 -2.433256
v 5.003090 2.617460 -2.472640
v -0.042414 10.046207 2.682457
v 5.054140 6.429653 2.767078
v 5.054090 -6.429653 4.169151
v 2.414802 7.468696 6.111006
v 2.440501 7.439782 2.743442
v 5.068914 11.345207 6.099765
v 5.054140 11.345207 2.760000
v 2.440501 11.484938 2.743442
v 2.414802 11.513851 6.111006
v -5.028258 0.781241 -0.805017
v -5.028629 3.809801 -0.853228
v -4.999677 3.792608 2.917128
v -4.998889 0.736722 3.019810
vt 0.375000 0.000000
vt 0.625000 0.000000
vt 0.375000 0.250000
vt 0.625000 0.250000
vt 0.375000 0.500000
vt 0.625000 0.500000
vt 0.375000 0.750000
vt 0.625000 0.750000
vt 0.375000 1.000000
vt 0.625000 1.000000
vt 0.875000 0.000000
vt 0.875000 0.250000
vt 0.125000 0.000000
vt 0.125000 0.250000
vt 0.625000 0.376838
vt 0.751838 0.250000
vt 0.248162 0.250000
vt 0.375000 0.376838
vt 0.248162 0.000000
vt 0.375000 0.873162
vt 0.625000 0.873162
vt 0.751838 0.000000
vt 0.625000 0.917940
vt 0.707060 0.000000
vt 0.751838 0.117365
vt 0.625000 0.831141
vt 0.793859 0.000000
vt 0.375000 0.917993
vt 0.706631 0.092509
vt 0.708267 0.102729
vt 0.714263 0.113091
vt 0.726803 0.120047
vt 0.742067 0.119907
vt 0.774778 0.119254
vt 0.786771 0.113527
vt 0.792768 0.102785
vt 0.793313 0.091860
vt 0.625000 0.955992
vt 0.669008 0.000000
vt 0.625000 0.318021
vt 0.693021 0.250000
vt 0.625000 0.142365
vt 0.490929 0.142365
vt 0.375000 0.142365
vt 0.248162 0.142365
vt 0.125000 0.142365
vt 0.375000 0.607635
vt 0.624447 0.607636
vt 0.874974 0.140376
vt 0.469068 0.142365
vt 0.490929 0.209056
vt 0.549868 0.142365
vt 0.469068 0.175245
vt 0.469488 0.186067
vt 0.475391 0.198758
vt 0.487119 0.207945
vt 0.501553 0.212155
vt 0.516990 0.212155
vt 0.531324 0.207945
vt 0.542951 0.198854
vt 0.548765 0.186318
vt 0.549567 0.175886
vt 0.416702 0.376838
vt 0.414182 0.250000
vt 0.561643 0.159234
vt 0.414315 0.000000
vt 0.414315 1.000000
vt 0.338559 0.250000
vt 0.375000 0.286441
vt 0.414886 0.285427
vt 0.375000 0.250000
vt 0.414182 0.250000
vt 0.414886 0.285427
vt 0.375000 0.286441
vt 0.517178 0.609812
vt 0.518160 0.550933
vt 0.441381 0.551267
vt 0.439290 0.610677
vn 0.999973 -0.000378 -0.007344
vn 0.999970 -0.000421 -0.007678
vn 0.999970 -0.000421 -0.007678
vn 0.999970 -0.000421 -0.007678
vn 0.999970 -0.000421 -0.007678
vn 0.999970 -0.000421 -0.007678
vn 0.999970 -0.000421 -0.007678
vn 0.999972 -0.000398 -0.007502
vn 0.999970 -0.000386 -0.007678
vn 0.999970 -0.000386 -0.007678
vn 0.999970 -0.000386 -0.007678
vn 0.999970 -0.000386 -0.007678
vn 0.999970 -0.000386 -0.007678
vn 0.999970 -0.000386 -0.007678
vn 0.999970 -0.000386 -0.007678
vn 0.999970 -0.000386 -0.007678
vn 0.999970 -0.000386 -0.007678
vn 0.999970 -0.000386 -0.007678
vn 0.999970 -0.000386 -0.007678
vn 0.999970 -0.000386 -0.007678
vn 0.999970 -0.000386 -0.007678
vn 0.999970 -0.000386 -0.007678
vn 0.606211 0.794836 0.027282
vn 0.606211 0.794836 0.027282
vn 0.606211 0.794836 0.027282
vn 0.606211 0.794836 0.027282
vn -0.030570 0.999351 0.019050
vn -0.029953 0.999370 0.019063
vn -0.031994 0.999307 0.019022
vn 0.606211 0.794836 0.027282
vn -0.999970 0.000000 0.007678
vn -0.999970 -0.000000 0.007678
vn -0.999970 0.000000 0.007678
vn -0.999970 0.000000 0.007678
vn -0.999970 0.000000 0.007678
vn -0.999970 0.000000 0.007678
vn -0.999970 0.000000 0.007678
vn -0.999970 0.000000 0.007678
vn -0.999970 0.000000 0.007678
vn -0.999970 0.000000 0.007678
vn -0.000000 -1.000000 0.000000
vn -0.000000 -1.000000 0.000000
vn -0.000000 -1.000000 0.000000
vn -0.000000 -1.000000 0.000000
vn -0.000000 -1.000000 0.000000
vn -0.000000 -1.000000 0.000000
vn -0.000000 -1.000000 0.000000
vn -0.007679 0.000000 -0.999971
vn -0.007679 0.000000 -0.999971
vn -0.007679 0.000000 -0.999971
vn -0.007679 0.000000 -0.999971
vn -0.007679 0.000000 -0.999971
vn -0.007679 0.000000 -0.999971
vn -0.007679 0.000000 -0.999971
vn -0.007679 0.000000 -0.999971
vn -0.007679 0.000000 -0.999971
vn -0.007679 0.000000 -0.999971
vn -0.007679 0.000000 -0.999971
vn -0.007679 0.000000 -0.999971
vn -0.007679 0.000000 -0.999971
vn 0.007792 0.000160 0.999970
vn 0.007792 0.000160 0.999970
vn 0.007906 0.000321 0.999969
vn 0.007906 0.000321 0.999969
vn 0.007537 0.000288 0.999972
vn 0.007538 0.000289 0.999972
vn 0.007782 0.000146 0.999970
vn -0.589646 0.807649 0.004528
vn -0.589646 0.807649 0.004528
vn 0.007679 0.000000 0.999971
vn 0.007679 0.000000 0.999971
vn 0.007679 0.000000 0.999971
vn -0.000000 -1.000000 0.000000
vn -0.000000 -1.000000 0.000000
vn -0.000000 -1.000000 0.000000
vn -0.000000 -1.000000 0.000000
vn -0.007678 0.000000 -0.999971
vn -0.007678 0.000000 -0.999971
vn -0.007678 0.000000 -0.999971
vn -0.007678 0.000000 -0.999971
vn -0.007678 0.000000 -0.999971
vn -0.007678 0.000000 -0.999971
vn -0.007678 0.000000 -0.999971
vn -0.007678 0.000000 -0.999971
vn -0.007678 0.000000 -0.999971
vn 0.058444 0.998282 -0.004208
vn 0.058444 0.998282 -0.004208
vn 0.058444 0.998282 -0.004208
vn 0.058444 0.998282 -0.004208
vn 0.999990 -0.000003 -0.004428
vn 0.999990 -0.000003 -0.004428
vn 0.007515 -0.000790 -0.999972
vn 0.007515 -0.000790 -0.999972
vn 0.007515 -0.000790 -0.999972
vn 0.007515 -0.000790 -0.999971
vn -0.999971 0.000000 -0.007631
vn -0.999971 0.000000 -0.007631
vn -0.999971 0.000000 -0.007631
vn -0.999971 0.000000 -0.007631
vn 0.004235 0.000000 0.999991
vn 0.004235 0.000000 0.999991
s 1
g pCube1
usemtl lambert3SG
f 3/3/1 30/44/2 1/1/3 49/66/4 2/2/5 28/42/6 4/4/7 48/65/8 36/52/9 29/43/10 34/50/11 37/53/12 38/54/13 39/55/14 40/56/15 35/51/16 41/57/17 42/58/18 43/59/19 44/60/20 45/61/21 46/62/22
s 2
usemtl lambert2SG
f 51/70/23 48/64/24 4/4/25 27/40/26 9/15/27 47/63/28 10/18/29 50/69/30
s 3
f 33/48/31 56/75/32 57/76/33 58/77/34 59/78/35 33/48/31 8/8/36 7/7/37 32/47/38 5/5/39 6/6/40
s 4
f 11/20/41 16/28/42 13/23/43 26/38/44 2/10/45 49/67/46 1/9/47
s 5
f 27/41/48 4/4/49 28/42/50 2/2/51 26/39/52 13/24/53 17/29/54 18/30/55 19/31/56 20/32/57 21/33/58 14/25/59 9/16/60
s 6
f 31/45/61 11/19/62 1/1/63 30/44/64 3/3/65 50/68/66 10/17/67
s 2
f 10/18/29 47/63/28 9/15/27 6/6/68 5/5/69
s 6
f 32/46/70 7/13/71 11/19/62 31/45/61 10/17/67 5/14/72
s 4
f 7/7/73 8/8/74 15/26/75 12/21/76 11/20/41
s 5
f 9/16/60 14/25/59 22/34/77 23/35/78 24/36/79 25/37/80 15/27/81 8/11/82 33/49/83 6/12/84
s 4
f 11/20/41 12/21/76 13/23/43 16/28/42
s 5
f 14/25/59 21/33/58 20/32/57 19/31/56 18/30/55 17/29/54 13/24/53 12/22/85
f 15/27/81 25/37/80 24/36/79 23/35/78 22/34/77 14/25/59 12/22/85
s 1
usemtl lambert4SG
f 35/51/16 40/56/15 39/55/14 38/54/13 37/53/12 34/50/11 29/43/10 36/52/9 46/62/22 45/61/21 44/60/20 43/59/19 42/58/18 41/57/17
s off
usemtl lambert2SG
f 52/71/86 53/72/87 54/73/88 55/74/89
f 3/3/1 48/64/8 53/72/90 52/71/91
f 48/64/92 51/70/93 54/73/94 53/72/95
f 51/70/96 50/69/97 55/74/98 54/73/99
s 6
f 50/69/66 3/3/65 52/71/100 55/74/101
s 3
usemtl lambert5SG
f 33/48/31 59/78/35 58/77/34 57/76/33 56/75/32
