# This file uses centimeters as units for non-parametric coordinates.

mtllib 12.mtl
g default
v -4.758646 -4.758646 5.298404
v 4.758646 -4.758646 5.298404
v -4.758646 4.758646 5.298404
v 4.758646 4.758646 5.298404
v -4.758646 4.758646 -5.298404
v 4.758646 4.758646 -5.298404
v -4.758646 -4.758646 -5.298404
v 4.758646 -4.758646 -5.298404
v 4.758646 4.758646 -2.592447
v -4.758646 4.758646 -2.592447
v -4.758646 -4.758646 -2.592447
v 4.758646 -4.758646 -2.592447
v 4.758646 4.758646 0.386841
v -4.758646 4.758646 0.386841
v -4.758646 -4.758646 0.386841
v 4.758646 -4.758646 0.386841
v 4.758646 4.758646 4.446509
v -4.758646 4.758646 4.446509
v -4.758646 -4.758646 4.446509
v 4.758646 -4.758646 4.446509
v 4.758646 4.758646 1.597903
v -4.758646 4.758646 1.597903
v -4.758646 -4.758646 1.597903
v 4.758646 -4.758646 1.597903
v 4.758646 2.080582 -2.592447
v 4.758646 2.080582 0.386841
v 4.758646 2.080582 1.597903
v 4.758646 2.080582 4.446509
v 4.758646 2.080582 5.298404
v -4.758646 2.080582 5.298404
v -4.758646 2.080582 4.446509
v -4.758646 2.080582 1.597903
v -4.758646 2.080582 0.386841
v -4.758646 2.080582 -2.592447
v -4.758646 2.080582 -5.298404
v 4.758646 2.080582 -5.298404
v 4.758646 0.727408 4.446509
v 4.758646 0.375413 5.298404
v -4.758646 0.375413 5.298404
v -4.758646 0.727408 4.446509
v -4.758646 0.727408 1.597903
v -4.758646 0.727408 0.386841
v -4.758646 0.727408 -2.592447
v -4.758646 0.727408 -5.298404
v 4.758646 0.727408 -5.298404
v 4.758646 0.727408 -2.592447
v 4.758646 0.727408 0.386841
v 4.758646 0.727408 1.597903
v 4.758646 3.450083 4.446509
v 4.758646 3.450083 5.298404
v -4.758646 3.450083 5.298404
v -4.758646 3.450083 4.446509
v -4.758646 3.450083 1.597903
v -4.758646 3.450083 0.386841
v -4.758646 3.450083 -2.592447
v -4.758646 3.450083 -5.298404
v 4.758646 3.450083 -5.298404
v 4.758646 3.450083 -2.592447
v 4.758646 3.450083 0.386841
v 4.758646 3.450083 1.597903
v -2.937243 0.375413 5.298404
v -2.937243 -4.758646 5.298404
v -2.937243 -4.758646 4.446509
v -2.937243 -4.758646 1.597903
v -2.937243 -4.758646 0.386841
v -2.937243 -4.758646 -2.592447
v -2.937243 -4.758646 -5.298404
v -2.937243 0.727408 -5.298404
v -2.937243 2.080582 -5.298404
v -2.937243 3.450083 -5.298404
v -2.937243 7.406226 -5.298404
v -2.937243 7.406226 -2.592447
v -2.937243 7.406226 0.386841
v -2.937243 7.406226 1.597903
v -2.937243 7.406226 4.446509
v -2.937243 7.406226 5.298404
v -2.937243 3.450083 5.298404
v -2.937243 2.080582 5.298404
v 2.937244 0.375413 5.298404
v 2.937244 -4.758646 5.298404
v 2.937244 -4.758646 4.446509
v 2.937244 -4.758646 1.597903
v 2.937244 -4.758646 0.386841
v 2.937244 -4.758646 -2.592447
v 2.937244 -4.758646 -5.298404
v 2.937244 0.727408 -5.298404
v 2.937244 2.080582 -5.298404
v 2.937244 3.450083 -5.298404
v 2.937244 5.231478 -5.298404
v 2.937244 5.231478 -2.592447
v 2.937244 5.231478 0.386841
v 2.937244 5.231478 1.597903
v 2.937244 5.231478 4.446509
v 2.937244 5.231478 5.298404
v 2.937244 3.450083 5.298404
v 2.937244 2.080582 5.298404
v -0.920860 0.375413 5.298404
v -0.920860 -4.758646 5.298404
v -0.920860 -4.758646 4.446509
v -0.920860 -4.758646 1.597903
v -0.920860 -4.758646 0.386841
v -0.920860 -4.758646 -2.592447
v -0.920860 -4.758646 -5.298404
v -0.920860 0.727408 -5.298404
v -0.920860 2.080582 -5.298404
v -0.920860 3.450083 -5.298404
v -0.920860 6.452115 -5.298404
v -0.920860 6.452115 -2.592447
v -0.920860 6.452115 0.386841
v -0.920860 6.452115 1.597903
v -0.920860 6.452115 4.446509
v -0.920860 6.452115 5.298404
v -0.920860 3.450083 5.298404
v -0.920860 2.080582 5.298404
v 0.920861 0.375413 5.298404
v 0.920861 -4.758646 5.298404
v 0.920861 -4.758646 4.446509
v 0.920861 -4.758646 1.597903
v 0.920861 -4.758646 0.386841
v 0.920861 -4.758646 -2.592447
v 0.920861 -4.758646 -5.298404
v 0.920861 0.727408 -5.298404
v 0.920861 2.080582 -5.298404
v 0.920861 3.450083 -5.298404
v 0.920861 5.799110 -5.298404
v 0.920861 5.799110 -2.592447
v 0.920861 5.799110 0.386841
v 0.920861 5.799110 1.597903
v 0.920861 5.799110 4.446509
v 0.920861 5.799110 5.298404
v 0.920861 3.450083 5.298404
v 0.920861 2.080582 5.298404
vt 0.375000 0.000000
vt 0.625000 0.000000
vt 0.375000 0.250000
vt 0.625000 0.250000
vt 0.375000 0.500000
vt 0.625000 0.500000
vt 0.375000 0.750000
vt 0.625000 0.750000
vt 0.375000 1.000000
vt 0.625000 1.000000
vt 0.875000 0.000000
vt 0.875000 0.250000
vt 0.125000 0.000000
vt 0.125000 0.250000
vt 0.625000 0.436161
vt 0.811161 0.250000
vt 0.188839 0.250000
vt 0.375000 0.436161
vt 0.188839 0.000000
vt 0.375000 0.813839
vt 0.625000 0.813839
vt 0.811161 0.000000
vt 0.625000 0.354184
vt 0.729184 0.250000
vt 0.270816 0.250000
vt 0.375000 0.354184
vt 0.270816 0.000000
vt 0.375000 0.895816
vt 0.625000 0.895816
vt 0.729184 0.000000
vt 0.625000 0.270098
vt 0.645098 0.250000
vt 0.354902 0.250000
vt 0.375000 0.270098
vt 0.354902 0.000000
vt 0.375000 0.979902
vt 0.625000 0.979902
vt 0.645098 0.000000
vt 0.625000 0.318008
vt 0.693008 0.250000
vt 0.306992 0.250000
vt 0.375000 0.318008
vt 0.306992 0.000000
vt 0.375000 0.931992
vt 0.625000 0.931992
vt 0.693008 0.000000
vt 0.811161 0.179653
vt 0.729184 0.179653
vt 0.693008 0.179653
vt 0.645098 0.179653
vt 0.625000 0.179653
vt 0.375000 0.179653
vt 0.354902 0.179653
vt 0.306992 0.179653
vt 0.270816 0.179653
vt 0.188839 0.179653
vt 0.125000 0.179653
vt 0.375000 0.570347
vt 0.625000 0.570347
vt 0.875000 0.179653
vt 0.645098 0.144108
vt 0.625000 0.144108
vt 0.375000 0.144108
vt 0.354902 0.144108
vt 0.306992 0.144108
vt 0.270816 0.144108
vt 0.188839 0.144108
vt 0.125000 0.144108
vt 0.375000 0.605892
vt 0.625000 0.605892
vt 0.875000 0.144108
vt 0.811161 0.144108
vt 0.729184 0.144108
vt 0.693008 0.144108
vt 0.645098 0.215627
vt 0.625000 0.215627
vt 0.375000 0.215627
vt 0.354902 0.215627
vt 0.306992 0.215627
vt 0.270816 0.215627
vt 0.188839 0.215627
vt 0.125000 0.215627
vt 0.375000 0.534373
vt 0.625000 0.534373
vt 0.875000 0.215627
vt 0.811161 0.215627
vt 0.729184 0.215627
vt 0.693008 0.215627
vt 0.458333 0.144108
vt 0.458333 0.000000
vt 0.458333 1.000000
vt 0.458333 0.979902
vt 0.458333 0.931992
vt 0.458333 0.895816
vt 0.458333 0.813839
vt 0.458333 0.750000
vt 0.458333 0.605892
vt 0.458333 0.570347
vt 0.458333 0.534373
vt 0.458333 0.500000
vt 0.458333 0.436161
vt 0.458333 0.354184
vt 0.458333 0.318008
vt 0.458333 0.270098
vt 0.458333 0.250000
vt 0.458333 0.215627
vt 0.458333 0.179653
vt 0.541667 0.144108
vt 0.541667 0.000000
vt 0.541667 1.000000
vt 0.541667 0.979902
vt 0.541667 0.931992
vt 0.541667 0.895816
vt 0.541667 0.813839
vt 0.541667 0.750000
vt 0.541667 0.605892
vt 0.541667 0.570347
vt 0.541667 0.534373
vt 0.541667 0.500000
vt 0.541667 0.436161
vt 0.541667 0.354184
vt 0.541667 0.318008
vt 0.541667 0.270098
vt 0.541667 0.250000
vt 0.541667 0.215627
vt 0.541667 0.179653
vt 0.486111 0.144108
vt 0.486111 0.000000
vt 0.486111 1.000000
vt 0.486111 0.979902
vt 0.486111 0.931992
vt 0.486111 0.895816
vt 0.486111 0.813839
vt 0.486111 0.750000
vt 0.486111 0.605892
vt 0.486111 0.570347
vt 0.486111 0.534373
vt 0.486111 0.500000
vt 0.486111 0.436161
vt 0.486111 0.354184
vt 0.486111 0.318008
vt 0.486111 0.270098
vt 0.486111 0.250000
vt 0.486111 0.215627
vt 0.486111 0.179653
vt 0.513889 0.144108
vt 0.513889 0.000000
vt 0.513889 1.000000
vt 0.513889 0.979902
vt 0.513889 0.931992
vt 0.513889 0.895816
vt 0.513889 0.813839
vt 0.513889 0.750000
vt 0.513889 0.605892
vt 0.513889 0.570347
vt 0.513889 0.534373
vt 0.513889 0.500000
vt 0.513889 0.436161
vt 0.513889 0.354184
vt 0.513889 0.318008
vt 0.513889 0.270098
vt 0.513889 0.250000
vt 0.513889 0.215627
vt 0.513889 0.179653
vn 0.000000 0.000000 1.000000
vn 0.000000 0.000000 1.000000
vn 0.000000 0.000000 1.000000
vn 0.000000 0.000000 1.000000
vn 0.261665 0.965159 0.000000
vn 0.251269 0.967917 0.000000
vn 0.251269 0.967917 0.000000
vn 0.261665 0.965159 0.000000
vn 0.000000 0.000000 -1.000000
vn 0.000000 0.000000 -1.000000
vn 0.000000 0.000000 -1.000000
vn 0.000000 0.000000 -1.000000
vn 0.000000 -1.000000 0.000000
vn 0.000000 -1.000000 0.000000
vn 0.000000 -1.000000 0.000000
vn 0.000000 -1.000000 0.000000
vn 1.000000 0.000000 0.000000
vn 1.000000 0.000000 0.000000
vn 1.000000 0.000000 0.000000
vn 1.000000 0.000000 0.000000
vn -1.000000 0.000000 0.000000
vn -1.000000 0.000000 0.000000
vn -1.000000 0.000000 0.000000
vn -1.000000 0.000000 0.000000
vn 0.261665 0.965159 0.000000
vn 0.251270 0.967917 0.000000
vn 0.251269 0.967917 0.000000
vn 0.261665 0.965159 0.000000
vn -1.000000 0.000000 0.000000
vn -1.000000 0.000000 0.000000
vn -1.000000 0.000000 0.000000
vn -1.000000 0.000000 0.000000
vn 0.000000 -1.000000 0.000000
vn 0.000000 -1.000000 0.000000
vn 0.000000 -1.000000 0.000000
vn 0.000000 -1.000000 0.000000
vn 1.000000 0.000000 0.000000
vn 1.000000 0.000000 0.000000
vn 1.000000 0.000000 0.000000
vn 1.000000 0.000000 0.000000
vn 0.261665 0.965159 0.000000
vn 0.251269 0.967917 0.000000
vn -1.000000 0.000000 0.000000
vn -1.000000 0.000000 0.000000
vn 0.000000 -1.000000 0.000000
vn 0.000000 -1.000000 0.000000
vn 1.000000 0.000000 0.000000
vn 1.000000 0.000000 0.000000
vn 0.251269 0.967917 0.000000
vn 0.261665 0.965159 0.000000
vn -1.000000 0.000000 0.000000
vn -1.000000 0.000000 0.000000
vn 0.000000 -1.000000 0.000000
vn 0.000000 -1.000000 0.000000
vn 1.000000 0.000000 0.000000
vn 1.000000 0.000000 0.000000
vn 1.000000 0.000000 0.000000
vn 1.000000 0.000000 0.000000
vn 1.000000 0.000000 0.000000
vn 1.000000 0.000000 0.000000
vn 1.000000 0.000000 0.000000
vn 1.000000 0.000000 0.000000
vn 1.000000 0.000000 0.000000
vn 1.000000 0.000000 0.000000
vn 1.000000 0.000000 0.000000
vn 1.000000 0.000000 0.000000
vn 0.000000 0.000000 1.000000
vn 0.000000 0.000000 1.000000
vn 0.000000 0.000000 1.000000
vn 0.000000 0.000000 1.000000
vn -1.000000 0.000000 0.000000
vn -1.000000 0.000000 0.000000
vn -1.000000 0.000000 0.000000
vn -1.000000 0.000000 0.000000
vn -1.000000 0.000000 0.000000
vn -1.000000 0.000000 0.000000
vn -1.000000 0.000000 0.000000
vn -1.000000 0.000000 0.000000
vn -1.000000 0.000000 0.000000
vn -1.000000 0.000000 0.000000
vn -1.000000 0.000000 0.000000
vn -1.000000 0.000000 0.000000
vn 0.000000 0.000000 -1.000000
vn 0.000000 0.000000 -1.000000
vn 0.000000 0.000000 -1.000000
vn 0.000000 0.000000 -1.000000
vn 1.000000 0.000000 0.000000
vn 1.000000 0.000000 0.000000
vn 1.000000 0.000000 0.000000
vn 1.000000 0.000000 0.000000
vn 0.000000 0.000000 1.000000
vn 0.000000 0.000000 1.000000
vn -1.000000 0.000000 0.000000
vn -1.000000 0.000000 0.000000
vn -1.000000 0.000000 0.000000
vn -1.000000 0.000000 0.000000
vn -1.000000 0.000000 0.000000
vn -1.000000 0.000000 0.000000
vn 0.000000 0.000000 -1.000000
vn 0.000000 0.000000 -1.000000
vn 1.000000 0.000000 0.000000
vn 1.000000 0.000000 0.000000
vn 1.000000 0.000000 0.000000
vn 1.000000 0.000000 0.000000
vn 0.000000 0.000000 1.000000
vn 0.000000 0.000000 1.000000
vn 0.000000 0.000000 1.000000
vn 0.000000 0.000000 1.000000
vn 0.000000 -1.000000 0.000000
vn 0.000000 -1.000000 0.000000
vn 0.000000 -1.000000 0.000000
vn 0.000000 -1.000000 0.000000
vn 0.000000 -1.000000 0.000000
vn 0.000000 -1.000000 0.000000
vn 0.000000 -1.000000 0.000000
vn 0.000000 -1.000000 0.000000
vn 0.000000 -1.000000 0.000000
vn 0.000000 -1.000000 0.000000
vn 0.000000 -1.000000 0.000000
vn 0.000000 -1.000000 0.000000
vn 0.000000 0.000000 -1.000000
vn 0.000000 0.000000 -1.000000
vn 0.000000 0.000000 -1.000000
vn 0.000000 0.000000 -1.000000
vn 0.000000 0.000000 -1.000000
vn 0.000000 0.000000 -1.000000
vn 0.000000 0.000000 -1.000000
vn 0.000000 0.000000 -1.000000
vn 0.000000 0.000000 -1.000000
vn 0.000000 0.000000 -1.000000
vn -0.823869 0.566781 0.000000
vn -0.403706 0.914889 0.000000
vn -0.403706 0.914889 0.000000
vn -0.823869 0.566781 0.000000
vn -0.823869 0.566781 0.000000
vn -0.403706 0.914889 0.000000
vn -0.823869 0.566781 0.000000
vn -0.403706 0.914889 0.000000
vn -0.823869 0.566781 0.000000
vn -0.403706 0.914889 0.000000
vn -0.823869 0.566781 0.000000
vn -0.403706 0.914889 0.000000
vn 0.000000 0.000000 1.000000
vn 0.000000 0.000000 1.000000
vn 0.000000 0.000000 1.000000
vn 0.000000 0.000000 1.000000
vn 0.000000 0.000000 1.000000
vn 0.000000 0.000000 1.000000
vn 0.000000 0.000000 1.000000
vn 0.000000 0.000000 1.000000
vn 0.000000 -1.000000 0.000000
vn 0.000000 -1.000000 0.000000
vn 0.000000 -1.000000 0.000000
vn 0.000000 -1.000000 0.000000
vn 0.000000 -1.000000 0.000000
vn 0.000000 -1.000000 0.000000
vn 0.000000 0.000000 -1.000000
vn 0.000000 0.000000 -1.000000
vn 0.000000 0.000000 -1.000000
vn 0.000000 0.000000 -1.000000
vn 0.000000 0.000000 -1.000000
vn 0.301646 0.953420 0.000000
vn 0.301646 0.953420 0.000000
vn 0.301646 0.953420 0.000000
vn 0.301646 0.953420 0.000000
vn 0.301646 0.953420 0.000000
vn 0.301646 0.953420 0.000000
vn 0.000000 0.000000 1.000000
vn 0.000000 0.000000 1.000000
vn 0.000000 0.000000 1.000000
vn 0.000000 0.000000 1.000000
vn 0.000000 0.000000 1.000000
vn 0.000000 -1.000000 0.000000
vn 0.000000 -1.000000 0.000000
vn 0.000000 -1.000000 0.000000
vn 0.000000 -1.000000 0.000000
vn 0.000000 -1.000000 0.000000
vn 0.000000 -1.000000 0.000000
vn 0.000000 0.000000 -1.000000
vn 0.000000 0.000000 -1.000000
vn 0.000000 0.000000 -1.000000
vn 0.000000 0.000000 -1.000000
vn 0.000000 0.000000 -1.000000
vn 0.384528 0.923113 0.000000
vn 0.384528 0.923113 0.000000
vn 0.384528 0.923113 0.000000
vn 0.384528 0.923113 0.000000
vn 0.384528 0.923113 0.000000
vn 0.384528 0.923113 0.000000
vn 0.000000 0.000000 1.000000
vn 0.000000 0.000000 1.000000
vn 0.000000 0.000000 1.000000
s 1
g pCube1
usemtl lambert5SG
f 80/109/1 2/2/2 38/62/3 79/108/4
s 2
usemtl lambert3SG
f 94/124/5 4/4/6 17/31/7 93/123/8
s 3
usemtl lambert5SG
f 86/116/9 45/70/10 8/8/11 85/115/12
s 4
usemtl initialShadingGroup
f 81/111/13 20/37/14 2/10/15 80/110/16
s 5
usemtl lambert5SG
f 2/2/17 20/38/18 37/61/19 38/62/20
s 6
f 19/35/21 1/1/22 39/63/23 40/64/24
s 2
usemtl lambert3SG
f 90/120/25 9/15/26 6/6/27 89/119/28
s 6
usemtl lambert5SG
f 7/13/29 11/19/30 43/67/31 44/68/32
s 4
usemtl initialShadingGroup
f 85/115/33 8/8/34 12/21/35 84/114/36
s 5
usemtl lambert5SG
f 45/71/37 46/72/38 12/22/39 8/11/40
s 2
usemtl lambert3SG
f 91/121/41 13/23/42 9/15/26 90/120/25
s 6
usemtl lambert5SG
f 11/19/30 15/27/43 42/66/44 43/67/31
s 4
usemtl initialShadingGroup
f 84/114/36 12/21/35 16/29/45 83/113/46
s 5
usemtl lambert2SG
f 47/73/47 16/30/48 12/22/39 46/72/38
s 2
usemtl lambert3SG
f 93/123/8 17/31/7 21/39/49 92/122/50
s 6
usemtl lambert5SG
f 23/43/51 19/35/21 40/64/24 41/65/52
s 4
usemtl initialShadingGroup
f 82/112/53 24/45/54 20/37/14 81/111/13
s 5
usemtl lambert5SG
f 48/74/55 37/61/19 20/38/18 24/46/56
s 2
usemtl lambert3SG
f 92/122/50 21/39/49 13/23/42 91/121/41
s 6
usemtl lambert5SG
f 15/27/43 23/43/51 41/65/52 42/66/44
s 4
usemtl initialShadingGroup
f 83/113/46 16/29/45 24/45/54 82/112/53
s 5
usemtl lambert5SG
f 48/74/55 24/46/56 16/30/48 47/73/47
f 59/87/57 26/48/58 25/47/59 58/86/60
f 60/88/61 27/49/62 26/48/58 59/87/57
usemtl lambert2SG
f 60/88/61 49/75/63 28/50/64 27/49/62
usemtl lambert5SG
f 29/51/65 28/50/64 49/75/63 50/76/66
s 1
f 96/126/67 29/51/68 50/76/69 95/125/70
s 6
f 31/53/71 30/52/72 51/77/73 52/78/74
f 32/54/75 31/53/71 52/78/74 53/79/76
f 33/55/77 32/54/75 53/79/76 54/80/78
f 34/56/79 33/55/77 54/80/78 55/81/80
f 35/57/81 34/56/79 55/81/80 56/82/82
s 3
f 88/118/83 57/84/84 36/59/85 87/117/86
s 5
f 58/86/60 25/47/59 36/60/87 57/85/88
f 38/62/20 37/61/19 28/50/64 29/51/65
s 1
f 96/126/67 79/108/4 38/62/3 29/51/68
s 6
f 40/64/24 39/63/23 30/52/72 31/53/71
f 41/65/52 40/64/24 31/53/71 32/54/75
f 42/66/44 41/65/52 32/54/75 33/55/77
f 43/67/31 42/66/44 33/55/77 34/56/79
f 44/68/32 43/67/31 34/56/79 35/57/81
s 3
f 87/117/86 36/59/85 45/70/10 86/116/9
s 5
f 36/60/87 25/47/59 46/72/38 45/71/37
f 26/48/58 47/73/47 46/72/38 25/47/59
f 27/49/62 48/74/55 47/73/47 26/48/58
usemtl lambert2SG
f 28/50/64 37/61/19 48/74/55 27/49/62
usemtl lambert5SG
f 50/76/66 49/75/63 17/32/89 4/4/90
s 1
f 95/125/70 50/76/69 4/4/91 94/124/92
s 6
f 52/78/74 51/77/73 3/3/93 18/33/94
f 53/79/76 52/78/74 18/33/94 22/41/95
f 54/80/78 53/79/76 22/41/95 14/25/96
f 55/81/80 54/80/78 14/25/96 10/17/97
f 56/82/82 55/81/80 10/17/97 5/14/98
s 3
f 89/119/99 6/6/100 57/84/84 88/118/83
s 5
f 9/16/101 58/86/60 57/85/88 6/12/102
f 13/24/103 59/87/57 58/86/60 9/16/101
f 21/40/104 60/88/61 59/87/57 13/24/103
f 17/32/89 49/75/63 60/88/61 21/40/104
s 1
f 1/1/105 62/90/106 61/89/107 39/63/108
s 4
usemtl initialShadingGroup
f 19/36/109 63/92/110 62/91/111 1/9/112
usemtl lambert5SG
f 23/44/113 64/93/114 63/92/110 19/36/109
usemtl initialShadingGroup
f 15/28/115 65/94/116 64/93/114 23/44/113
f 11/20/117 66/95/118 65/94/116 15/28/115
f 7/7/119 67/96/120 66/95/118 11/20/117
s 3
usemtl lambert5SG
f 44/69/121 68/97/122 67/96/123 7/7/124
f 35/58/125 69/98/126 68/97/122 44/69/121
f 56/83/127 70/99/128 69/98/126 35/58/125
f 5/5/129 71/100/130 70/99/128 56/83/127
s 2
usemtl lambert3SG
f 10/18/131 72/101/132 71/100/133 5/5/134
f 14/26/135 73/102/136 72/101/132 10/18/131
f 22/42/137 74/103/138 73/102/136 14/26/135
f 18/34/139 75/104/140 74/103/138 22/42/137
f 3/3/141 76/105/142 75/104/140 18/34/139
s 1
usemtl lambert5SG
f 51/77/143 77/106/144 76/105/145 3/3/146
f 30/52/147 78/107/148 77/106/144 51/77/143
f 39/63/108 61/89/107 78/107/148 30/52/147
f 116/147/149 80/109/1 79/108/4 115/146/150
s 4
usemtl initialShadingGroup
f 117/149/151 81/111/13 80/110/16 116/148/152
f 118/150/153 82/112/53 81/111/13 117/149/151
f 119/151/154 83/113/46 82/112/53 118/150/153
f 120/152/155 84/114/36 83/113/46 119/151/154
f 121/153/156 85/115/33 84/114/36 120/152/155
s 3
usemtl lambert5SG
f 122/154/157 86/116/9 85/115/12 121/153/158
f 123/155/159 87/117/86 86/116/9 122/154/157
f 124/156/160 88/118/83 87/117/86 123/155/159
f 125/157/161 89/119/99 88/118/83 124/156/160
s 2
usemtl lambert3SG
f 126/158/162 90/120/25 89/119/28 125/157/163
f 127/159/164 91/121/41 90/120/25 126/158/162
f 128/160/165 92/122/50 91/121/41 127/159/164
f 129/161/166 93/123/8 92/122/50 128/160/165
f 130/162/167 94/124/5 93/123/8 129/161/166
s 1
usemtl lambert5SG
f 131/163/168 95/125/70 94/124/92 130/162/169
usemtl lambert2SG
f 132/164/170 96/126/67 95/125/70 131/163/168
f 132/164/170 115/146/150 79/108/4 96/126/67
usemtl lambert5SG
f 62/90/106 98/128/171 97/127/172 61/89/107
s 4
usemtl initialShadingGroup
f 63/92/110 99/130/173 98/129/174 62/91/111
f 64/93/114 100/131/175 99/130/173 63/92/110
f 65/94/116 101/132/176 100/131/175 64/93/114
f 66/95/118 102/133/177 101/132/176 65/94/116
f 67/96/120 103/134/178 102/133/177 66/95/118
s 3
usemtl lambert5SG
f 68/97/122 104/135/179 103/134/180 67/96/123
f 69/98/126 105/136/181 104/135/179 68/97/122
f 70/99/128 106/137/182 105/136/181 69/98/126
f 71/100/130 107/138/183 106/137/182 70/99/128
s 2
usemtl lambert3SG
f 72/101/132 108/139/184 107/138/185 71/100/133
f 73/102/136 109/140/186 108/139/184 72/101/132
f 74/103/138 110/141/187 109/140/186 73/102/136
f 75/104/140 111/142/188 110/141/187 74/103/138
f 76/105/142 112/143/189 111/142/188 75/104/140
s 1
usemtl lambert5SG
f 77/106/144 113/144/190 112/143/191 76/105/145
usemtl lambert2SG
f 78/107/148 114/145/192 113/144/190 77/106/144
f 78/107/148 61/89/107 97/127/172 114/145/192
usemtl lambert5SG
f 98/128/171 116/147/149 115/146/150 97/127/172
s 4
usemtl initialShadingGroup
f 99/130/173 117/149/151 116/148/152 98/129/174
f 100/131/175 118/150/153 117/149/151 99/130/173
f 101/132/176 119/151/154 118/150/153 100/131/175
f 102/133/177 120/152/155 119/151/154 101/132/176
f 103/134/178 121/153/156 120/152/155 102/133/177
s 3
usemtl lambert5SG
f 104/135/179 122/154/157 121/153/158 103/134/180
f 105/136/181 123/155/159 122/154/157 104/135/179
f 106/137/182 124/156/160 123/155/159 105/136/181
f 107/138/183 125/157/161 124/156/160 106/137/182
s 2
usemtl lambert3SG
f 108/139/184 126/158/162 125/157/163 107/138/185
f 109/140/186 127/159/164 126/158/162 108/139/184
f 110/141/187 128/160/165 127/159/164 109/140/186
f 111/142/188 129/161/166 128/160/165 110/141/187
f 112/143/189 130/162/167 129/161/166 111/142/188
s 1
usemtl lambert5SG
f 113/144/190 131/163/168 130/162/169 112/143/191
f 114/145/192 132/164/170 131/163/168 113/144/190
f 114/145/192 97/127/172 115/146/150 132/164/170
