# This file uses centimeters as units for non-parametric coordinates.

mtllib 71.mtl
g default
v 7.440688 -5.837847 4.067992
v 3.577301 -5.837847 -6.949997
v 7.846155 5.837847 5.224344
v 3.171834 5.837847 -8.106350
v -3.171834 5.837847 9.087731
v -7.846155 5.837847 -4.242963
v -3.577301 -5.837847 7.931378
v -7.440688 -5.837847 -3.086611
v 3.577301 5.322844 -6.949997
v 7.440688 5.322844 4.067992
v -3.577301 5.322844 7.931378
v -7.440688 5.322844 -3.086611
v 3.577301 5.322844 -6.949997
v 7.440688 5.322844 4.067992
v 3.577301 5.837847 -6.949997
v 7.440688 5.837847 4.067992
v -3.577301 5.322844 7.931378
v -3.577301 5.837847 7.931378
v -7.440688 5.837847 -3.086611
v -7.440688 5.322844 -3.086611
v 7.440688 5.322844 4.067992
v -3.577301 5.322844 7.931378
v 7.440688 5.837847 4.067992
v -3.577301 5.837847 7.931378
v -7.440688 5.322844 -3.086611
v 3.577301 5.322844 -6.949997
v -7.440688 5.837847 -3.086611
v 3.577301 5.837847 -6.949997
v 7.846155 5.322844 5.224344
v -3.171834 5.322844 9.087731
v -7.846155 5.322844 -4.242963
v 3.171834 5.322844 -8.106350
v -5.508995 10.837232 2.422384
v -5.508995 5.837847 2.422384
v -5.508995 5.322844 2.422384
v -5.508995 5.322844 2.422384
v -5.508995 -5.837847 2.422384
v 5.508995 -5.837847 -1.441003
v 5.508995 5.322844 -1.441003
v 5.508995 5.322844 -1.441003
v 5.508995 5.837847 -1.441003
v 5.508995 10.837232 -1.441003
vt 0.375000 0.000000
vt 0.625000 0.000000
vt 0.348835 0.233898
vt 0.667735 0.231594
vt 0.366405 0.499995
vt 0.651213 0.499995
vt 0.375000 0.750000
vt 0.625000 0.750000
vt 0.375000 1.000000
vt 0.625000 1.000000
vt 0.875000 0.000000
vt 0.874987 0.250000
vt 0.125000 0.000000
vt 0.125013 0.250000
vt 0.625000 0.238973
vt 0.375000 0.238973
vt 0.125000 0.238973
vt 0.375000 0.511027
vt 0.625000 0.511027
vt 0.875000 0.238973
vt 0.375000 0.238973
vt 0.625000 0.238973
vt 0.625000 0.250000
vt 0.375000 0.250000
vt 0.125000 0.238973
vt 0.125000 0.250000
vt 0.375000 0.500000
vt 0.625000 0.500000
vt 0.625000 0.511027
vt 0.375000 0.511027
vt 0.875000 0.238973
vt 0.875000 0.250000
vt 0.125000 0.238973
vt 0.375000 0.238973
vt 0.375000 0.250000
vt 0.125000 0.250000
vt 0.625000 0.238973
vt 0.875000 0.238973
vt 0.875000 0.250000
vt 0.625000 0.250000
vt 0.125000 0.238973
vt 0.375000 0.238973
vt 0.374997 0.249892
vt 0.125004 0.249907
vt 0.625000 0.238973
vt 0.875000 0.238973
vt 0.874996 0.249907
vt 0.625003 0.249892
vt 0.500000 0.500000
vt 0.500000 0.500000
vt 0.500000 0.511027
vt 0.500000 0.511027
vt 0.500000 0.750000
vt 0.500000 0.000000
vt 0.500000 1.000000
vt 0.500000 0.238973
vt 0.500000 0.238973
vt 0.500000 0.250000
vt 0.500000 0.250000
vn 0.943669 0.000000 -0.330891
vn 0.943669 0.000000 -0.330891
vn 0.943669 0.000000 -0.330891
vn 0.943669 0.000000 -0.330891
vn 0.943669 0.000000 -0.330891
vn 0.943669 0.000000 -0.330891
vn 0.191166 0.816228 0.545186
vn 0.000000 1.000000 -0.000000
vn 0.000000 1.000000 -0.000000
vn 0.191166 0.816228 0.545186
vn -0.943669 0.000000 0.330891
vn -0.943669 0.000000 0.330891
vn -0.943669 0.000000 0.330891
vn -0.943669 0.000000 0.330891
vn -0.943669 0.000000 0.330891
vn -0.943669 0.000000 0.330891
vn 0.000000 -1.000000 0.000000
vn 0.000000 -1.000000 0.000000
vn 0.000000 -1.000000 0.000000
vn 0.000000 -1.000000 0.000000
vn -0.330891 0.000000 -0.943669
vn -0.330891 0.000000 -0.943669
vn -0.330891 0.000000 -0.943669
vn -0.330891 0.000000 -0.943669
vn 0.330891 0.000000 0.943669
vn 0.330891 0.000000 0.943669
vn 0.330891 0.000000 0.943669
vn 0.330891 0.000000 0.943669
vn 0.943669 0.000000 -0.330891
vn 0.943669 0.000000 -0.330891
vn 0.943669 0.000000 -0.330891
vn 0.943669 0.000000 -0.330891
vn 0.330891 0.000000 0.943669
vn 0.330891 0.000000 0.943669
vn 0.330891 0.000000 0.943669
vn 0.330891 0.000000 0.943669
vn -0.943669 0.000000 0.330891
vn -0.943669 0.000000 0.330891
vn -0.943669 0.000000 0.330891
vn -0.943669 0.000000 0.330891
vn -0.330891 0.000000 -0.943669
vn -0.330891 0.000000 -0.943669
vn -0.330891 0.000000 -0.943669
vn -0.330891 0.000000 -0.943669
vn 0.000000 0.000000 -0.000000
vn 0.000000 0.000000 -0.000000
vn 0.000000 0.000000 -0.000000
vn 0.000000 0.000000 -0.000000
vn 0.943669 0.000000 -0.330891
vn 0.943669 0.000000 -0.330891
vn 0.943669 0.000000 -0.330891
vn 0.943669 0.000000 -0.330891
vn 0.000000 0.000000 -0.000000
vn 0.000000 0.000000 -0.000000
vn 0.000000 0.000000 -0.000000
vn 0.000000 0.000000 -0.000000
vn 0.000000 -1.000000 0.000000
vn 0.000000 -1.000000 0.000000
vn 0.000000 -1.000000 0.000000
vn 0.000000 -1.000000 0.000000
vn -0.943669 0.000000 0.330891
vn -0.943669 0.000000 0.330891
vn -0.943669 0.000000 0.330891
vn -0.943669 0.000000 0.330891
vn 0.000000 0.000000 -0.000000
vn 0.000000 0.000000 -0.000000
vn 0.000000 0.000000 -0.000000
vn 0.000000 0.000000 -0.000000
vn 0.000000 0.000000 -0.000000
vn 0.000000 0.000000 -0.000000
vn 0.000000 0.000000 -0.000000
vn 0.000000 0.000000 -0.000000
vn 0.000000 -1.000000 0.000000
vn 0.000000 -1.000000 0.000000
vn 0.000000 -1.000000 0.000000
vn 0.000000 -1.000000 0.000000
vn 0.000000 0.000000 -0.000000
vn 0.000000 0.000000 -0.000000
vn 0.000000 0.000000 -0.000000
vn 0.000000 0.000000 -0.000000
vn 0.000000 0.000000 -0.000000
vn 0.000000 0.000000 -0.000000
vn 0.000000 0.000000 -0.000000
vn 0.000000 0.000000 -0.000000
vn 0.000000 0.000000 -0.000000
vn 0.000000 0.000000 -0.000000
vn 0.000000 0.000000 -0.000000
vn 0.000000 0.000000 -0.000000
vn 0.000000 0.000000 -0.000000
vn 0.000000 0.000000 -0.000000
vn 0.000000 0.000000 -0.000000
vn 0.000000 0.000000 -0.000000
vn 0.000000 0.000000 -0.000000
vn 0.000000 0.000000 -0.000000
vn 0.000000 0.000000 -0.000000
vn 0.000000 0.000000 -0.000000
vn 0.000000 0.000000 -0.000000
vn 0.000000 0.000000 -0.000000
vn 0.000000 0.000000 -0.000000
vn 0.000000 0.000000 -0.000000
vn 0.000000 0.000000 -0.000000
vn 0.000000 0.000000 -0.000000
vn 0.000000 0.000000 -0.000000
vn 0.000000 0.000000 -0.000000
vn 0.000000 0.000000 -0.000000
vn 0.000000 0.000000 -0.000000
vn 0.000000 0.000000 -0.000000
vn 0.000000 0.000000 -0.000000
vn 0.000000 -1.000000 0.000000
vn 0.000000 -1.000000 0.000000
vn 0.000000 -1.000000 0.000000
vn 0.000000 -1.000000 0.000000
vn 0.943669 0.000000 -0.330891
vn 0.943669 0.000000 -0.330891
vn 0.943669 0.000000 -0.330891
vn 0.943669 0.000000 -0.330891
vn 0.000000 1.000000 -0.000000
vn 0.000000 1.000000 -0.000000
vn 0.000000 1.000000 -0.000000
vn 0.000000 1.000000 -0.000000
vn -0.943669 0.000000 0.330891
vn -0.943669 0.000000 0.330891
vn -0.943669 0.000000 0.330891
vn -0.943669 0.000000 0.330891
vn 0.000000 -1.000000 0.000000
vn 0.000000 -1.000000 0.000000
vn 0.000000 -1.000000 0.000000
vn 0.000000 -1.000000 0.000000
vn -0.943669 0.000000 0.330891
vn -0.943669 0.000000 0.330891
vn -0.943669 0.000000 0.330891
vn -0.943669 0.000000 0.330891
vn 0.000000 1.000000 -0.000000
vn 0.000000 1.000000 -0.000000
vn 0.000000 1.000000 -0.000000
vn 0.000000 1.000000 -0.000000
vn 0.943669 0.000000 -0.330891
vn 0.943669 0.000000 -0.330891
vn 0.943669 0.000000 -0.330891
vn 0.943669 0.000000 -0.330891
vn -0.943669 0.000000 0.330891
vn -0.943669 0.000000 0.330891
vn -0.943669 0.000000 0.330891
vn -0.943669 0.000000 0.330891
vn -0.943669 0.000000 0.330891
vn -0.943669 0.000000 0.330891
vn 0.000000 0.000000 -0.000000
vn 0.000000 0.000000 -0.000000
vn 0.000000 0.000000 -0.000000
vn 0.000000 0.000000 -0.000000
vn 0.000000 -1.000000 0.000000
vn 0.000000 -1.000000 0.000000
vn 0.000000 0.000000 -0.000000
vn 0.000000 0.000000 -0.000000
vn 0.000000 0.000000 -0.000000
vn 0.000000 0.000000 -0.000000
vn 0.943669 0.000000 -0.330891
vn 0.943669 0.000000 -0.330891
vn 0.943669 0.000000 -0.330891
vn 0.943669 0.000000 -0.330891
vn 0.943669 0.000000 -0.330891
vn 0.943669 0.000000 -0.330891
vn -0.191166 0.816228 -0.545186
vn -0.191166 0.816228 -0.545186
s off
g pCube1
usemtl initialShadingGroup
f 39/56/1 10/16/2 1/1/3 38/54/4 2/2/5 9/15/6
s 1
f 3/3/7 42/59/8 33/49/9 5/5/10
s off
f 37/53/11 7/7/12 11/18/13 36/52/14 12/19/15 8/8/16
s 2
f 7/7/17 37/53/18 38/55/19 1/9/20
s off
f 2/2/21 8/11/22 12/20/23 9/15/24
f 7/13/25 1/1/26 10/16/27 11/17/28
s 3
f 14/21/29 40/57/30 41/58/31 16/24/32
s off
f 30/41/33 29/42/34 3/43/35 5/44/36
s 4
f 18/27/37 34/50/38 35/51/39 17/30/40
s off
f 32/45/41 31/46/42 6/47/43 4/48/44
f 10/16/45 39/56/46 40/57/47 14/21/48
f 42/59/49 3/3/50 16/24/51 41/58/52
f 11/17/53 10/16/54 14/21/55 17/25/56
f 3/3/57 5/14/58 18/26/59 16/24/60
f 5/5/61 33/49/62 34/50/63 18/27/64
f 36/52/65 11/18/66 17/30/67 35/51/68
f 9/15/69 12/20/70 20/31/71 13/22/72
f 6/12/73 4/4/74 15/23/75 19/32/76
f 17/25/77 14/21/78 21/34/79 22/33/80
f 14/21/81 16/24/82 23/35/83 21/34/84
f 16/24/85 18/26/86 24/36/87 23/35/88
f 18/26/89 17/25/90 22/33/91 24/36/92
f 13/22/93 20/31/94 25/38/95 26/37/96
f 20/31/97 19/32/98 27/39/99 25/38/100
f 19/32/101 15/23/102 28/40/103 27/39/104
f 15/23/105 13/22/106 26/37/107 28/40/108
f 22/33/109 21/34/110 29/42/111 30/41/112
f 21/34/113 23/35/114 3/43/115 29/42/116
f 23/35/117 24/36/118 5/44/119 3/43/120
f 24/36/121 22/33/122 30/41/123 5/44/124
f 26/37/125 25/38/126 31/46/127 32/45/128
f 25/38/129 27/39/130 6/47/131 31/46/132
f 27/39/133 28/40/134 4/48/135 6/47/136
f 28/40/137 26/37/138 32/45/139 4/48/140
f 33/49/141 6/6/142 19/28/143 34/50/144
s 4
f 35/51/39 34/50/38 19/28/145 20/29/146
s off
f 12/19/147 36/52/148 35/51/149 20/29/150
s 2
f 38/55/19 37/53/18 8/8/151 2/10/152
s off
f 40/57/153 39/56/154 9/15/155 13/22/156
s 3
f 41/58/31 40/57/30 13/22/157 15/23/158
s off
f 4/4/159 42/59/160 41/58/161 15/23/162
s 1
f 33/49/9 42/59/8 4/4/163 6/6/164
